<?xml version="1.0" standalone="no"?>
<!DOCTYPE svg PUBLIC "-//W3C//DTD SVG 20010904//EN"
 "http://www.w3.org/TR/2001/REC-SVG-20010904/DTD/svg10.dtd">
<svg version="1.0" xmlns="http://www.w3.org/2000/svg"
 width="64.000000pt" height="64.000000pt" viewBox="0 0 64.000000 64.000000"
 preserveAspectRatio="xMidYMid meet">

<g transform="translate(0.000000,64.000000) scale(0.100000,-0.100000)"
fill="#000000" stroke="none">
<path d="M240 624 c-19 -8 -45 -24 -57 -36 -12 -11 -32 -26 -45 -32 -20 -10
-23 -20 -26 -98 -3 -71 0 -93 17 -126 69 -135 234 -162 340 -56 24 25 41 48
37 52 -4 4 -17 -5 -28 -21 -27 -37 -53 -37 -43 0 5 16 11 46 14 68 5 36 9 40
36 40 28 0 30 -2 27 -35 -5 -45 14 -28 20 20 23 154 -149 286 -292 224z m70
-29 c0 -20 -5 -25 -24 -25 -34 0 -41 16 -14 34 31 22 38 20 38 -9z m58 9 c27
-18 20 -34 -14 -34 -19 0 -24 5 -24 25 0 29 7 31 38 9z m-128 -8 c0 -3 -4 -8
-10 -11 -5 -3 -10 -1 -10 4 0 6 5 11 10 11 6 0 10 -2 10 -4z m180 -6 c0 -5 -2
-10 -4 -10 -3 0 -8 5 -11 10 -3 6 -1 10 4 10 6 0 11 -4 11 -10z m-210 -41 c-6
-11 -9 -28 -7 -37 3 -12 8 -8 17 16 13 35 13 35 59 26 30 -6 31 -7 31 -65 l0
-59 -50 0 c-43 0 -50 3 -50 20 0 11 -4 20 -9 20 -5 0 -11 -9 -14 -20 -3 -14
-14 -20 -31 -20 -22 0 -26 4 -26 30 0 19 7 33 20 40 11 6 20 21 20 34 0 28 7
36 32 36 16 0 17 -3 8 -21z m277 -24 c32 -60 33 -89 4 -93 -30 -5 -50 13 -33
30 18 18 15 41 -8 61 -25 21 -27 50 -3 45 10 -2 28 -21 40 -43z m-73 19 c3 -8
3 -27 0 -41 -5 -19 -2 -30 11 -39 27 -20 8 -34 -46 -34 l-49 0 0 59 c0 54 2
60 23 64 44 8 55 7 61 -9z m-259 -14 c-3 -5 -10 -10 -16 -10 -5 0 -9 5 -9 10
0 6 7 10 16 10 8 0 12 -4 9 -10z m295 -40 c0 -5 -4 -10 -10 -10 -5 0 -10 5
-10 10 0 6 5 10 10 10 6 0 10 -4 10 -10z m-255 -130 c6 -30 14 -61 18 -67 6
-9 2 -13 -12 -13 -25 0 -71 74 -71 114 0 24 4 27 27 24 24 -3 28 -9 38 -58z
m115 50 c0 -6 -5 -19 -12 -30 -10 -15 -9 -24 2 -44 16 -31 15 -32 -31 -41 -34
-6 -37 -5 -48 26 -6 17 -11 47 -11 65 l0 34 50 0 c28 0 50 -5 50 -10z m122
-25 c-2 -16 -8 -45 -13 -63 -10 -31 -13 -32 -47 -26 -47 9 -48 9 -32 40 11 20
12 29 2 44 -21 35 -14 41 41 38 51 -3 52 -3 49 -33z m-102 -25 c0 -5 -4 -10
-10 -10 -5 0 -10 5 -10 10 0 6 5 10 10 10 6 0 10 -4 10 -10z m-20 -105 c0 -29
-3 -30 -35 -9 -29 19 -24 34 11 34 19 0 24 -5 24 -25z m75 16 c5 -9 -31 -41
-47 -41 -5 0 -8 11 -8 25 0 20 5 25 24 25 14 0 27 -4 31 -9z m-150 -11 c3 -5
1 -10 -4 -10 -6 0 -11 5 -11 10 0 6 2 10 4 10 3 0 8 -4 11 -10z m185 0 c0 -5
-5 -10 -11 -10 -5 0 -7 5 -4 10 3 6 8 10 11 10 2 0 4 -4 4 -10z"/>
<path d="M20 550 c-18 -18 -20 -33 -20 -160 0 -87 4 -140 10 -140 6 0 10 53
10 138 0 149 4 162 52 162 15 0 28 5 28 10 0 18 -59 11 -80 -10z"/>
<path d="M515 560 c3 -5 23 -10 44 -10 20 0 42 -5 49 -12 17 -17 17 -409 0
-426 -17 -17 -559 -17 -576 0 -7 7 -12 34 -12 60 0 26 -4 48 -10 48 -5 0 -10
-22 -10 -48 0 -38 5 -53 23 -70 21 -20 34 -22 130 -22 l106 0 -10 -30 c-8 -22
-17 -30 -35 -30 -13 0 -24 -4 -24 -10 0 -6 50 -10 130 -10 80 0 130 4 130 10
0 6 -11 10 -24 10 -18 0 -27 8 -35 30 l-10 30 108 0 c157 0 151 -9 151 248 0
189 -1 203 -20 222 -14 14 -33 20 -66 20 -27 0 -43 -4 -39 -10z m-145 -506 c6
-14 10 -27 10 -30 0 -2 -27 -4 -61 -4 -52 0 -60 2 -55 16 3 9 6 22 6 30 0 10
13 14 45 14 40 0 47 -3 55 -26z"/>
<path d="M53 533 c-10 -3 -13 -50 -13 -183 0 -167 1 -180 19 -190 26 -14 496
-14 522 0 15 9 19 22 19 71 0 38 -4 58 -10 54 -5 -3 -10 -31 -10 -61 l0 -54
-260 0 -260 0 0 175 c0 149 2 175 15 175 8 0 15 5 15 10 0 10 -16 12 -37 3z"/>
<path d="M535 530 c-4 -6 5 -10 19 -10 l26 0 0 -99 c0 -56 4 -103 10 -106 6
-4 10 33 10 103 0 91 -3 111 -16 116 -23 9 -42 7 -49 -4z"/>
<path d="M90 260 c0 -5 11 -10 25 -10 14 0 25 5 25 10 0 6 -11 10 -25 10 -14
0 -25 -4 -25 -10z"/>
<path d="M90 210 c0 -5 15 -10 34 -10 19 0 38 5 41 10 4 6 -10 10 -34 10 -23
0 -41 -4 -41 -10z"/>
<path d="M75 130 c-4 -6 7 -10 25 -10 18 0 29 4 25 10 -3 6 -15 10 -25 10 -10
0 -22 -4 -25 -10z"/>
<path d="M150 130 c0 -5 11 -10 25 -10 14 0 25 5 25 10 0 6 -11 10 -25 10 -14
0 -25 -4 -25 -10z"/>
</g>
</svg>
