<?xml version="1.0" standalone="no"?>
<!DOCTYPE svg PUBLIC "-//W3C//DTD SVG 20010904//EN"
 "http://www.w3.org/TR/2001/REC-SVG-20010904/DTD/svg10.dtd">
<svg version="1.0" xmlns="http://www.w3.org/2000/svg"
 width="64.000000pt" height="64.000000pt" viewBox="0 0 64.000000 64.000000"
 preserveAspectRatio="xMidYMid meet">

<g transform="translate(0.000000,64.000000) scale(0.100000,-0.100000)"
fill="#000000" stroke="none">
<path d="M316 608 l-99 -30 -93 27 c-51 15 -100 25 -109 22 -13 -6 -15 -40
-13 -284 l3 -277 103 -33 103 -33 108 31 109 32 90 -28 c50 -15 98 -25 106
-22 15 6 16 38 14 283 l-3 277 -82 28 c-120 40 -128 40 -237 7z m-199 -23 l83
-26 0 -264 c-1 -146 -4 -265 -7 -265 -4 0 -44 12 -90 27 l-83 27 0 263 c0 145
3 263 7 263 4 0 44 -11 90 -25z m303 -25 c0 -43 -3 -50 -19 -50 -11 0 -23 -4
-26 -10 -4 -6 5 -10 19 -10 l26 0 0 -203 0 -203 -89 -27 c-50 -15 -95 -27
-100 -27 -15 0 -14 73 1 88 10 10 10 14 0 21 -9 6 -12 56 -10 212 l3 204 80
27 c115 38 115 38 115 -22z m117 23 l83 -27 0 -263 c0 -145 -3 -263 -6 -263
-3 0 -44 12 -90 26 l-84 25 0 205 c0 201 0 205 20 199 12 -4 20 -2 20 5 0 7
-9 14 -20 17 -17 4 -20 14 -20 54 0 27 3 49 7 49 4 0 44 -12 90 -27z"/>
<path d="M61 511 c-12 -12 -21 -28 -21 -36 0 -26 26 -79 47 -98 20 -17 21 -17
47 13 34 42 43 77 25 109 -19 35 -70 40 -98 12z m77 -13 c18 -18 14 -52 -9
-82 -24 -31 -36 -26 -55 20 -11 25 -12 40 -4 54 12 22 49 27 68 8z"/>
<path d="M100 470 c0 -5 5 -10 11 -10 5 0 7 5 4 10 -3 6 -8 10 -11 10 -2 0 -4
-4 -4 -10z"/>
<path d="M100 320 c0 -11 5 -20 10 -20 6 0 10 9 10 20 0 11 -4 20 -10 20 -5 0
-10 -9 -10 -20z"/>
<path d="M100 261 c0 -12 5 -21 10 -21 6 0 10 6 10 14 0 8 -4 18 -10 21 -5 3
-10 -3 -10 -14z"/>
<path d="M100 203 c0 -5 4 -15 10 -23 11 -18 25 -7 17 15 -6 15 -27 21 -27 8z"/>
<path d="M135 150 c-4 -6 -4 -10 -1 -10 2 0 11 -3 20 -6 9 -3 16 -2 16 4 0 14
-28 23 -35 12z"/>
<path d="M341 476 c-8 -9 -11 -19 -7 -23 9 -9 29 13 24 27 -2 8 -8 7 -17 -4z"/>
<path d="M315 417 c-4 -10 -5 -21 -1 -24 10 -10 18 4 13 24 -4 17 -4 17 -12 0z"/>
<path d="M310 340 c0 -11 5 -20 10 -20 6 0 10 9 10 20 0 11 -4 20 -10 20 -5 0
-10 -9 -10 -20z"/>
<path d="M310 280 c0 -11 5 -20 10 -20 6 0 10 9 10 20 0 11 -4 20 -10 20 -5 0
-10 -9 -10 -20z"/>
<path d="M300 209 c0 -11 5 -17 10 -14 6 3 10 13 10 21 0 8 -4 14 -10 14 -5 0
-10 -9 -10 -21z"/>
<path d="M275 159 c-4 -6 -5 -13 -2 -16 7 -7 27 6 27 18 0 12 -17 12 -25 -2z"/>
<path d="M490 473 c0 -5 4 -15 10 -23 11 -18 25 -7 17 15 -6 15 -27 21 -27 8z"/>
<path d="M520 386 c0 -8 5 -18 10 -21 6 -3 10 3 10 14 0 12 -4 21 -10 21 -5 0
-10 -6 -10 -14z"/>
<path d="M520 320 c0 -11 5 -20 10 -20 6 0 10 9 10 20 0 11 -4 20 -10 20 -5 0
-10 -9 -10 -20z"/>
<path d="M526 271 c-4 -7 -5 -15 -2 -18 9 -9 19 4 14 18 -4 11 -6 11 -12 0z"/>
<path d="M555 240 c-16 -18 -20 -19 -35 -5 -27 25 -48 18 -22 -7 l22 -22 -22
-23 c-25 -27 -17 -44 10 -20 23 21 31 21 54 0 16 -14 18 -14 18 -1 0 9 -7 21
-15 28 -14 12 -13 16 5 35 12 13 17 26 12 29 -5 3 -17 -3 -27 -14z"/>
</g>
</svg>
